<?xml version="1.0" standalone="no"?>
<!DOCTYPE svg PUBLIC "-//W3C//DTD SVG 20010904//EN"
 "http://www.w3.org/TR/2001/REC-SVG-20010904/DTD/svg10.dtd">
<svg version="1.0" xmlns="http://www.w3.org/2000/svg"
 width="512.000000pt" height="512.000000pt" viewBox="0 0 512.000000 512.000000"
 preserveAspectRatio="xMidYMid meet">
<metadata>
Created by potrace 1.11, written by Peter Selinger 2001-2013
</metadata>
<g transform="translate(0.000000,512.000000) scale(0.100000,-0.100000)"
fill="#000000" stroke="none">
<path d="M415 5110 c-183 -38 -330 -170 -391 -350 -18 -53 -19 -134 -19 -2200
0 -2066 1 -2147 19 -2200 52 -154 168 -274 322 -332 l59 -23 2155 0 2155 0 59
23 c154 58 270 178 322 332 18 53 19 134 19 2200 0 2066 -1 2147 -19 2200 -52
154 -168 274 -322 332 l-59 23 -2130 1 c-1172 1 -2148 -2 -2170 -6z m1815
-867 c-1 -21 -14 -497 -29 -1058 -16 -561 -28 -1021 -27 -1022 1 -1 199 214
439 478 305 333 442 477 452 472 40 -24 395 -269 395 -273 0 -3 -170 -165
-377 -359 -208 -195 -379 -357 -381 -360 -1 -4 178 -220 398 -480 l401 -474
-245 -163 c-135 -90 -249 -164 -253 -164 -5 0 -192 272 -418 604 -225 333
-411 604 -412 603 -1 -2 9 -238 23 -526 14 -288 21 -527 17 -531 -11 -9 -574
-112 -580 -106 -3 3 7 245 21 538 l26 533 -25 1064 c-14 585 -25 1084 -23
1109 l3 46 280 52 c154 29 288 53 298 53 13 1 17 -7 17 -36z"/>
</g>
</svg>
